#N canvas 0 50 450 400 12;
#X obj 30 30 metro 500;
#X obj 30 60 float 0;
#X obj 30 90 + 1;
#X obj 30 120 moses 5;
#X obj 30 160 osc~ 440;
#X obj 130 160 osc~ 880;
#X obj 30 200 *~ 0.5;
#X obj 130 200 *~ 0.3;
#X obj 80 240 +~;
#X obj 80 280 dac~;
#X text 10 10 Control-rate + audio: metro counter gates two oscillators;
#X connect 0 0 1 0;
#X connect 1 0 2 0;
#X connect 2 0 1 0;
#X connect 2 0 3 0;
#X connect 3 0 6 1;
#X connect 3 1 7 1;
#X connect 4 0 6 0;
#X connect 5 0 7 0;
#X connect 6 0 8 0;
#X connect 7 0 8 1;
#X connect 8 0 9 0;
#X connect 8 0 9 1;
