#N canvas 0 50 450 300 12;
#X obj 30 30 hsl 128 15 20 2000 0 0 empty empty Frequency -2 -6 0 8 -262144 -1 -1 44000 1;
#X obj 30 60 send freq;
#X obj 200 30 receive freq;
#X obj 200 60 osc~;
#X obj 200 100 *~ 0.5;
#X obj 200 140 dac~;
#X text 10 10 send-receive bus: slider controls oscillator frequency;
#X connect 0 0 1 0;
#X connect 2 0 3 0;
#X connect 3 0 4 0;
#X connect 4 0 5 0;
#X connect 4 0 5 1;
